<!-- Generated by IcoMoon.io -->
<svg version="1.1" xmlns="http://www.w3.org/2000/svg" width="36" height="32" viewBox="0 0 36 32">
<title>Cart</title>
<path opacity="0.851" fill="#000" d="M35.243 3.364l-3.307-0.132-4.542 18.709-1.020 1.545h-19.731l-0.772-1.545-3.87-15.785 3.71-0.23 3.618 14.338h14.434l4.943-19.136 2.103-1.129 5.391 0.068-0.958 3.296zM11.334 16.267v-0.8h10.931v0.8h-10.931zM10.667 11.134h12.533v0.8h-12.533v-0.8zM9.067 6.801h15.332v0.8h-15.332v-0.8zM10.214 25.675c1.739 0 3.147 1.414 3.147 3.162s-1.408 3.164-3.147 3.164c-1.737 0-3.145-1.417-3.145-3.164s1.408-3.162 3.145-3.162zM23.317 25.675c1.737 0 3.145 1.414 3.145 3.162s-1.408 3.164-3.145 3.164c-1.739 0-3.147-1.417-3.147-3.164s1.408-3.162 3.147-3.162z"></path>
</svg>
